<svg width="214" height="231" viewBox="0 0 214 231" fill="none" xmlns="http://www.w3.org/2000/svg">
<path d="M106.454 82.3906C102.454 67.3906 70.9537 40.3903 27.9538 76.3905C-15.0462 112.391 2.95378 176.891 16.9538 192.891C30.9537 208.891 45.9538 221.176 62.4537 225.891C83.4537 231.891 90.4538 230.391 106.954 222.391" stroke="#4C4A4A" stroke-linecap="round" stroke-linejoin="round" stroke-dasharray="2 2"/>
<path d="M106.954 222.391C118.454 231.391 150.454 231.885 169.954 216.891C189.454 201.896 197.25 197.02 205.954 177.891C212.324 163.891 224.954 112.891 185.954 75.8906C146.954 38.8905 112.454 74.8906 112.454 74.8906C112.454 74.8906 108.954 61.3906 112.954 45.8906C116.954 30.3906 127.454 22.8906 127.454 22.8906C127.454 22.8906 126.954 13.3908 120.454 18.8906C113.954 24.3904 109.954 27.3906 104.954 44.3906C100.761 58.6472 106.954 82.3906 106.954 82.3906" stroke="#4C4A4A" stroke-linecap="round" stroke-linejoin="round" stroke-dasharray="2 2"/>
<path d="M102.954 40.3909C102.954 40.3909 103.454 20.988 82.9537 7.89087C62.4537 -5.20624 39.9537 4.39062 39.9537 4.39062C39.9537 4.39062 42.4537 12.3908 47.9537 20.3907C53.4537 28.3906 54.6469 29.1405 60.9537 33.3907C83.9537 48.8906 103.954 46.8909 103.954 46.8909" stroke="black" stroke-linecap="round" stroke-linejoin="round" stroke-dasharray="2 2"/>
</svg>
